<?xml version="1.0" encoding="utf-8"?>
<!-- Generator: Adobe Illustrator 25.2.3, SVG Export Plug-In . SVG Version: 6.00 Build 0)  -->
<svg version="1.1" id="Layer_1" xmlns="http://www.w3.org/2000/svg" xmlns:xlink="http://www.w3.org/1999/xlink" x="0px" y="0px"
	 viewBox="0 0 103.93 94.19" style="enable-background:new 0 0 103.93 94.19;" xml:space="preserve">
<style type="text/css">
	.st0{fill:#3F4EA1;}
	.st1{fill:#2B3087;}
</style>
<g>
	<g>
		<path class="st0" d="M20.89,82.92c0-1.77-0.79-2.68-2.56-2.68c-1.21,0-2.41,0.26-3.17,0.64c0.15,0.38,0.34,0.94,0.34,1.73v10.82
			h-4.56V82.92c0-1.77-0.83-2.68-2.56-2.68c-1.09,0-1.92,0.15-2.83,0.42v12.78H1.03V77.72c2.34-0.9,5.09-1.47,7.58-1.47
			c1.96,0,3.62,0.49,4.64,1.32c1.51-0.68,3.24-1.32,5.69-1.32c4,0,6.52,1.55,6.52,6.48v10.71h-4.56V82.92z"/>
		<path class="st0" d="M34.04,86.28v0.08c0.34,2.37,2.68,3.58,4.94,3.58c2.26,0,3.96-0.53,5.62-1.51v3.85
			c-1.55,1.09-3.81,1.55-6.07,1.55c-5.47,0-8.9-3.36-8.9-8.6c0-5.54,3.51-8.97,8.22-8.97c5.24,0,7.28,3.47,7.28,7.92v2.11H34.04z
			 M40.91,83.57c-0.04-2.07-1.02-3.58-3.17-3.58c-1.96,0-3.24,1.39-3.66,3.58H40.91z"/>
		<path class="st0" d="M47.61,76.63h2.53v-4.15h4.52v4.15h4.79v3.77h-4.79v6.75c0,1.92,0.9,2.53,2.26,2.53
			c1.13,0,2.11-0.34,3.09-0.94v4.15c-1.21,0.64-2.64,0.94-4.34,0.94c-2.9,0-5.54-1.4-5.54-5.47V80.4h-2.53V76.63z"/>
		<path class="st0" d="M61.9,76.63h2.53v-4.15h4.52v4.15h4.79v3.77h-4.79v6.75c0,1.92,0.9,2.53,2.26,2.53
			c1.13,0,2.11-0.34,3.09-0.94v4.15c-1.21,0.64-2.64,0.94-4.34,0.94c-2.9,0-5.54-1.4-5.54-5.47V80.4H61.9V76.63z"/>
		<path class="st0" d="M83,93.44h-4.52V67.81H83V93.44z"/>
		<path class="st0" d="M91.82,86.28v0.08c0.34,2.37,2.68,3.58,4.94,3.58c2.26,0,3.96-0.53,5.62-1.51v3.85
			c-1.55,1.09-3.81,1.55-6.07,1.55c-5.47,0-8.9-3.36-8.9-8.6c0-5.54,3.51-8.97,8.22-8.97c5.24,0,7.28,3.47,7.28,7.92v2.11H91.82z
			 M98.69,83.57c-0.04-2.07-1.02-3.58-3.17-3.58c-1.96,0-3.24,1.39-3.66,3.58H98.69z"/>
	</g>
	<g>
		<g>
			<path class="st0" d="M56.21,4.43c0,0,11.85,4.53,11.85,24.44v16.8c0,0-1.36,14.09,12.36,14.09s12.36-14.4,12.36-14.4v-17.1
				c0.05-2.85-0.22-9.22-4.19-15.69c-1.2-1.96-3.96-6.33-9.07-9.07C69.13-2.06,57.58,3.71,56.21,4.43z"/>
			<path class="st0" d="M27.47,7.98c1.66,0.6,4.52,1.91,7.08,4.68c4.34,4.71,4.71,10.32,4.76,11.96
				c-0.01,7.01-0.02,14.03-0.03,21.04c-0.07,0.56-0.81,7.44,4.14,11.49c3.18,2.6,6.93,2.6,8.22,2.6c13.71,0,12.36-14.4,12.36-14.4
				c0-5.44,0-10.89,0-16.33c0.05-1.78-0.04-4.23-0.66-7.04c-1.02-4.63-2.9-7.78-3.3-8.42c-0.87-1.42-4.55-7.52-11.57-9.91
				C37.88,0.03,28.33,7.3,27.47,7.98z"/>
			<path class="st1" d="M35.83,25.35V47.4c0,0-0.01,11.61-12.36,12.36c0,0-11.24,0.38-12.36-12.36V25.35c0,0-0.11-11.63,12.36-12.36
				C23.48,13,34.89,12.78,35.83,25.35z"/>
		</g>
	</g>
</g>
</svg>
