<?xml version="1.0" encoding="utf-8"?>
<!-- Generator: Adobe Illustrator 25.2.3, SVG Export Plug-In . SVG Version: 6.00 Build 0)  -->
<svg version="1.1" id="Layer_1" xmlns="http://www.w3.org/2000/svg" xmlns:xlink="http://www.w3.org/1999/xlink" x="0px" y="0px"
	 viewBox="0 0 141.54 100" style="enable-background:new 0 0 141.54 100;" xml:space="preserve">
<style type="text/css">
	.st0{fill:#3F4EA1;}
	.st1{fill:#2B3087;}
</style>
<g>
	<path class="st0" d="M77.56,6.5c0,0,19.6,7.49,19.6,40.41v27.78c0,0-2.24,23.3,20.43,23.3s20.43-23.81,20.43-23.81V45.89
		c0.09-4.71-0.37-15.25-6.92-25.94c-1.99-3.25-6.54-10.47-15-15C98.93-4.24,79.83,5.32,77.56,6.5z"/>
	<path class="st0" d="M30.03,12.37c2.74,1,7.48,3.16,11.71,7.74c7.18,7.79,7.79,17.07,7.87,19.78c-0.02,11.6-0.04,23.19-0.06,34.79
		c-0.11,0.92-1.34,12.3,6.84,19.01c5.25,4.31,11.45,4.29,13.59,4.29c22.67,0,20.43-23.81,20.43-23.81c0-9,0-18.01,0-27.01
		c0.08-2.95-0.07-6.99-1.1-11.65c-1.68-7.65-4.8-12.86-5.45-13.92C82.43,19.25,76.33,9.16,64.74,5.2
		C47.25-0.77,31.45,11.25,30.03,12.37z"/>
	<path class="st1" d="M43.86,41.1v36.45c0,0-0.01,19.2-20.43,20.43c0,0-18.59,0.63-20.43-20.43V41.1c0,0-0.18-19.23,20.43-20.43
		C23.43,20.67,42.3,20.31,43.86,41.1z"/>
</g>
</svg>
